<svg width="17" height="16" viewBox="0 0 17 16" fill="none" xmlns="http://www.w3.org/2000/svg">
<g id="_EXP Icon">
<circle id="Ellipse 118" cx="8.5" cy="8" r="7.5" fill="url(#paint0_radial_1593_1936)" stroke="#FFEAC1"/>
<g id="Group">
<path id="Vector" d="M9.4916 10.6786L11.6781 12.001C12.0785 12.2434 12.5685 11.8851 12.4632 11.432L11.8836 8.94518L13.8172 7.26972C14.1702 6.96413 13.9806 6.38457 13.5169 6.34769L10.9721 6.13167L9.97632 3.78181C9.79718 3.35504 9.18601 3.35504 9.00687 3.78181L8.01108 6.1264L5.46628 6.34242C5.00263 6.3793 4.81295 6.95886 5.16596 7.26445L7.09959 8.93991L6.52002 11.4268C6.41465 11.8799 6.90464 12.2381 7.30507 11.9958L9.4916 10.6786Z" fill="#E1A83A"/>
</g>
<g id="Group_2">
<path id="Vector_2" d="M8.49151 10.6251L10.6379 11.9233C11.0309 12.1612 11.5119 11.8095 11.4085 11.3647L10.8396 8.92358L12.7377 7.2789C13.0842 6.97893 12.898 6.41002 12.4429 6.37382L9.94483 6.16177L8.96733 3.85509C8.79149 3.43616 8.19154 3.43616 8.0157 3.85509L7.0382 6.1566L4.54016 6.36864C4.08503 6.40485 3.89884 6.97376 4.24536 7.27373L6.14346 8.91841L5.57455 11.3596C5.47111 11.8043 5.9521 12.156 6.34516 11.9181L8.49151 10.6251Z" fill="white"/>
</g>
</g>
<defs>
<radialGradient id="paint0_radial_1593_1936" cx="0" cy="0" r="1" gradientUnits="userSpaceOnUse" gradientTransform="translate(8.5 5) rotate(90) scale(11 9.69905)">
<stop offset="0.572927" stop-color="#FFC147"/>
<stop offset="1" stop-color="#EAA30A"/>
</radialGradient>
</defs>
</svg>
